<svg width="141" height="65" viewBox="0 0 141 65" fill="none" xmlns="http://www.w3.org/2000/svg">
<path d="M141 0H0V64.988H141V0Z" fill="#172E5E"/>
<path d="M26.0463 40.6035L20.4768 50.1795H15.8625V13.0725H26.2014L26.2049 32.025L26.2014 40.39L26.1873 40.362L26.0463 40.6035Z" fill="white"/>
<path d="M22.3591 26.915V33.8905H33.7449V26.915H22.3591Z" fill="white"/>
<path d="M30.4948 47.775L26.1872 40.362L26.0462 40.6035L22.345 34.237L28.0061 30.9925L35.9479 44.6495L30.4948 47.775Z" fill="white"/>
<path d="M93.0812 40.6035L87.5152 50.1795H82.8975V13.0725H93.2398V32.025V40.39L93.2222 40.362L93.0812 40.6035Z" fill="white"/>
<path d="M89.394 26.915V33.8905H100.78V26.915H89.394Z" fill="white"/>
<path d="M97.5297 47.775L93.2221 40.362L93.0811 40.6035L89.3799 34.237L95.0446 30.9925L102.986 44.6495L97.5297 47.775Z" fill="white"/>
<path d="M61.6946 26.9255V33.8975H75.6571V26.9255H61.6946Z" fill="white"/>
<path d="M57.3059 12.957V19.7295H79.4605V12.957L57.3059 12.957Z" fill="white"/>
<path d="M73.5173 12.9955V35.2135H79.4499V12.9955H73.5173Z" fill="white"/>
<path d="M79.4499 35.2135L70.6797 50.2985H62.5581L73.3587 31.7205L79.4499 35.2135Z" fill="white"/>
<path d="M58.3388 26.915V50.1795H48.3631C42.1414 50.1795 37.0972 44.9715 37.0972 38.549C37.0972 32.1265 42.1414 26.915 48.3631 26.915H58.3388Z" fill="white"/>
<path d="M58.3388 33.1485V43.9495C56.4565 47.6525 52.6953 50.1795 48.3631 50.1795C42.1414 50.1795 37.0972 44.9715 37.0972 38.549C37.0972 32.1265 42.1414 26.915 48.3631 26.915C52.6988 26.915 56.4565 29.442 58.3388 33.1485Z" fill="white"/>
<path d="M125.434 26.915V50.1795H115.458C109.236 50.1795 104.192 44.9715 104.192 38.549C104.192 32.1265 109.236 26.915 115.458 26.915H125.434Z" fill="white"/>
<path d="M125.434 33.1485V43.9495C123.551 47.6525 119.79 50.1795 115.458 50.1795C109.236 50.1795 104.192 44.9715 104.192 38.549C104.192 32.1265 109.236 26.915 115.458 26.915C119.794 26.915 123.551 29.442 125.434 33.1485Z" fill="white"/>
</svg>
