<svg width="51" height="50" viewBox="0 0 51 50" fill="none" xmlns="http://www.w3.org/2000/svg">
<ellipse cx="25.5" cy="25" rx="25.5" ry="25" fill="#182F60"/>
<rect x="12" y="21" width="27" height="18" rx="2" fill="#FAFAFA"/>
<rect x="24" y="24" width="3" height="12" rx="1" fill="#182F60"/>
<rect x="31" y="24" width="3" height="12" rx="1" fill="#182F60"/>
<rect x="17" y="24" width="3" height="12" rx="1" fill="#182F60"/>
<rect x="11" y="20" width="29" height="3" rx="1" fill="#FAFAFA"/>
<rect x="19.0571" y="9.91751" width="2" height="12" rx="1" transform="rotate(10 19.0571 9.91751)" fill="#FAFAFA"/>
<rect x="8.09766" y="23.7028" width="4.00677" height="18.6922" transform="rotate(-10 8.09766 23.7028)" fill="#182F60"/>
<rect x="29.9731" y="10.2648" width="2" height="12" rx="1" transform="rotate(-10 29.9731 10.2648)" fill="#FAFAFA"/>
<rect x="38.9058" y="22.9686" width="5.88919" height="17.5486" transform="rotate(10 38.9058 22.9686)" fill="#182F60"/>
</svg>
